<svg xmlns="http://www.w3.org/2000/svg" viewBox="0 0 360 520" role="img" aria-label="委托书锻造师">
  <defs>
    <linearGradient id="bg" x1="0" x2="1" y1="0" y2="1">
      <stop offset="0" stop-color="#08111e" />
      <stop offset=".5" stop-color="#151627" />
      <stop offset="1" stop-color="#2b2138" />
    </linearGradient>
    <radialGradient id="halo" cx="50%" cy="27%" r="58%">
      <stop offset="0" stop-color="#f8d98b" stop-opacity=".5" />
      <stop offset=".46" stop-color="#8b5cf6" stop-opacity=".2" />
      <stop offset="1" stop-color="#8b5cf6" stop-opacity="0" />
    </radialGradient>
    <linearGradient id="coat" x1="0" x2="1">
      <stop offset="0" stop-color="#101827" />
      <stop offset=".52" stop-color="#31264c" />
      <stop offset="1" stop-color="#0d1322" />
    </linearGradient>
  </defs>
  <rect width="360" height="520" rx="34" fill="url(#bg)" />
  <circle cx="180" cy="150" r="154" fill="url(#halo)" />
  <path d="M72 94h216M88 134h184M72 174h216" stroke="#f8d98b" stroke-opacity=".15" stroke-width="7" />
  <path d="M92 504c10-98 50-154 88-154s78 56 88 154Z" fill="url(#coat)" />
  <path d="M122 176c4-63 27-98 58-98s54 35 58 98c4 66-21 111-58 111s-62-45-58-111Z" fill="#d9b18c" />
  <path d="M112 160c17-70 56-103 101-82 33 15 49 52 46 104-33-36-79-47-136-24Z" fill="#101827" />
  <path d="M130 190c23-16 63-18 103-1-11-50-36-79-73-76-29 3-44 31-30 77Z" fill="#211b35" opacity=".98" />
  <path d="M140 219c15 8 32 8 47 0M204 219c15 8 32 8 47 0" stroke="#101827" stroke-width="6" stroke-linecap="round" />
  <path d="M165 260c13 12 36 12 50 0" stroke="#553225" stroke-width="5" stroke-linecap="round" />
  <path d="M116 382h128M180 350v100M138 404l42 42 42-42" fill="none" stroke="#f8d98b" stroke-opacity=".66" stroke-width="7" stroke-linecap="round" stroke-linejoin="round" />
  <path d="M238 236h62v94h-62z" fill="#0d1322" stroke="#d8b4fe" stroke-opacity=".55" stroke-width="5" />
  <path d="M250 260h38M250 282h29M250 304h34" stroke="#f8d98b" stroke-opacity=".82" stroke-width="5" stroke-linecap="round" />
  <path d="M62 350l58-36 18 29-58 36z" fill="#171827" stroke="#f8d98b" stroke-opacity=".45" stroke-width="5" />
  <path d="M82 342h34M78 359h24" stroke="#d8b4fe" stroke-opacity=".7" stroke-width="5" stroke-linecap="round" />
  <path d="M76 438h208" stroke="#d8b4fe" stroke-opacity=".28" stroke-width="8" />
  <text x="180" y="470" text-anchor="middle" fill="#fff3cf" font-family="serif" font-size="23" font-weight="700">委托书锻造师</text>
</svg>
